<svg xmlns="http://www.w3.org/2000/svg" width="1800" height="600"><path fill="url(#gradient-orange)" fill-rule="evenodd" d="M953.682 320H768l53.434 56v77.333L953.682 320ZM846.815 480H1032.5l-53.437-56v-77.333L846.815 480Z" clip-rule="evenodd"/><g filter="url(#cursor-shadow)"><g opacity="0" transform="translate(-14,-18)"><path fill="#fff" fill-rule="evenodd" d="M9.774 6.262a3 3 0 0 1 3.225.5l22 19.656A3 3 0 0 1 33 31.655H20.811l-7.48 9.233A3 3 0 0 1 8 39V9a3 3 0 0 1 1.774-2.738Z" clip-rule="evenodd"/><path fill="#f81" d="M11 39V9l22 19.655H19.381L11 39Z"/><animate id="cursor-animation-1" attributeName="opacity" begin="0s;cursor-animation-1.end+5s" dur="5s" keyTimes="0;0.1;0.2;0.8;0.9;1" repeatCount="1" values="0;0;1;1;0;0"/></g><animateMotion begin="0s;cursor-animation-1.end+5s" calcMode="spline" dur="5s" keyPoints="0; 0.136; 0.238; 0.888; 1" keySplines="0.6 0 0.4 1; 0.6 0 0.4 1; 0.6 0 0.4 1; 0.6 0 0.4 1" keyTimes="0; 0.3; 0.5; 0.8; 1" path="M3 508c132.5 0 174-108 251.5-134.5-7.5-74.5-65.5-153-65.5-208C237.5 139 622.5 191 892 191s623.5-74 679.5-91.5c52 3 139.5 65.5 231.5 65.5" repeatCount="1"/></g><g filter="url(#cursor-shadow)"><g opacity="0" transform="translate(-14,-18)"><path fill="#fff" fill-rule="evenodd" d="M9.774 6.262a3 3 0 0 1 3.225.5l22 19.656A3 3 0 0 1 33 31.655H20.811l-7.48 9.233A3 3 0 0 1 8 39V9a3 3 0 0 1 1.774-2.738Z" clip-rule="evenodd"/><path fill="#8c1" d="M11 39V9l22 19.655H19.381L11 39Z"/><animate id="cursor-animation-2" attributeName="opacity" begin="3s;cursor-animation-2.end+7s" dur="3s" keyTimes="0;0.1;0.2;0.8;0.9;1" repeatCount="1" values="0;0;1;1;0;0"/></g><animateMotion begin="3s;cursor-animation-2.end+7s" calcMode="spline" dur="3s" keyPoints="0; 0.455; 1" keySplines="0.6 0 0.4 1; 0.6 0 0.4 1" keyTimes="0; 0.6; 1" path="M1033 2c-52 120-336.5 201.5-508.5 226C466 166 336.619 83.563 209 120 80.158 156.786 65 344 3 381" repeatCount="1"/></g><g filter="url(#cursor-shadow)"><g opacity="0" transform="translate(-14,-18)"><path fill="#fff" fill-rule="evenodd" d="M9.774 6.262a3 3 0 0 1 3.225.5l22 19.656A3 3 0 0 1 33 31.655H20.811l-7.48 9.233A3 3 0 0 1 8 39V9a3 3 0 0 1 1.774-2.738Z" clip-rule="evenodd"/><path fill="#0bf" d="M11 39V9l22 19.655H19.381L11 39Z"/><animate id="cursor-animation-3" attributeName="opacity" begin="5s;cursor-animation-3.end+6s" dur="4s" keyTimes="0;0.1;0.2;0.8;0.9;1" repeatCount="1" values="0;0;1;1;0;0"/></g><animateMotion begin="5s;cursor-animation-3.end+6s" calcMode="spline" dur="4s" keyPoints="0; 0.24; 0.382; 0.55; 1" keySplines="0.6 0 0.4 1; 0.6 0 0.4 1; 0.6 0 0.4 1; 0.6 0 0.4 1" keyTimes="0; 0.3; 0.5; 0.7; 1" path="M1694 2c-22.5 85.5-82.5 165-114.5 243.5-45.5-38-106-71-131.5-96-68.26 9.3-81.85 79.916-97.5 147 229 0 368.5 203.5 452.5 203.5" repeatCount="1"/></g><g filter="url(#cursor-shadow)"><g opacity="0" transform="translate(-14,-18)"><path fill="#fff" fill-rule="evenodd" d="M9.774 6.262a3 3 0 0 1 3.225.5l22 19.656A3 3 0 0 1 33 31.655H20.811l-7.48 9.233A3 3 0 0 1 8 39V9a3 3 0 0 1 1.774-2.738Z" clip-rule="evenodd"/><path fill="#e4b" d="M11 39V9l22 19.655H19.381L11 39Z"/><animate id="cursor-animation-4" attributeName="opacity" begin="6s;cursor-animation-4.end+4s" dur="6s" keyTimes="0;0.1;0.2;0.8;0.9;1" repeatCount="1" values="0;0;1;1;0;0"/></g><animateMotion begin="6s;cursor-animation-4.end+4s" calcMode="spline" dur="6s" keyPoints="0; 0.128; 0.268; 0.416; 0.678; 1" keySplines="0.6 0 0.4 1; 0.6 0 0.4 1; 0.6 0 0.4 1; 0.6 0 0.4 1; 0.6 0 0.4 1" keyTimes="0; 0.2; 0.4; 0.6; 0.8; 1" path="M270,2C314.52,112.714 327.5,250 384,285.5C619.5,245 664,224 726.5,250C673.5,348 517.814,217.564 449.5,109C646,85 981.5,48 1089,125C1158.5,309.5 1450.74,233.398 1624,285.5C1710,311.362 1736.65,324.217 1800,361" repeatCount="1"/></g><defs><radialGradient id="gradient-orange" cx="0" cy="0" r="1" gradientTransform="rotate(31.5 -131.761 1432.952) scale(331.742 257.349)" gradientUnits="userSpaceOnUse"><stop stop-color="#f09"/><stop offset="1" stop-color="#f70"/></radialGradient><filter id="cursor-shadow" width="200%" height="200%" x="-50%" y="-30%"><feDropShadow dx="0" dy="2" flood-color="#000" flood-opacity=".2" stdDeviation="6"/></filter></defs></svg>